<svg width="320" height="180" viewBox="0 0 320 180" fill="none" xmlns="http://www.w3.org/2000/svg" role="img">
<defs>
<linearGradient id="a10-bg" x1="0" y1="0" x2="1" y2="1">
<stop offset="0%" stop-color="#0c1626"/>
<stop offset="55%" stop-color="#0a1220"/>
<stop offset="100%" stop-color="#0b0f1e"/>
</linearGradient>
</defs>
<rect width="320" height="180" fill="url(#a10-bg)"/>
<line x1="16" y1="0" x2="16" y2="180" stroke="#16283f" stroke-width="1" opacity="0.45"/><line x1="32" y1="0" x2="32" y2="180" stroke="#16283f" stroke-width="1" opacity="0.45"/><line x1="48" y1="0" x2="48" y2="180" stroke="#16283f" stroke-width="1" opacity="0.45"/><line x1="64" y1="0" x2="64" y2="180" stroke="#16283f" stroke-width="1" opacity="0.45"/><line x1="80" y1="0" x2="80" y2="180" stroke="#16283f" stroke-width="1" opacity="0.45"/><line x1="96" y1="0" x2="96" y2="180" stroke="#16283f" stroke-width="1" opacity="0.45"/><line x1="112" y1="0" x2="112" y2="180" stroke="#16283f" stroke-width="1" opacity="0.45"/><line x1="128" y1="0" x2="128" y2="180" stroke="#16283f" stroke-width="1" opacity="0.45"/><line x1="144" y1="0" x2="144" y2="180" stroke="#16283f" stroke-width="1" opacity="0.45"/><line x1="160" y1="0" x2="160" y2="180" stroke="#16283f" stroke-width="1" opacity="0.45"/><line x1="176" y1="0" x2="176" y2="180" stroke="#16283f" stroke-width="1" opacity="0.45"/><line x1="192" y1="0" x2="192" y2="180" stroke="#16283f" stroke-width="1" opacity="0.45"/><line x1="208" y1="0" x2="208" y2="180" stroke="#16283f" stroke-width="1" opacity="0.45"/><line x1="224" y1="0" x2="224" y2="180" stroke="#16283f" stroke-width="1" opacity="0.45"/><line x1="240" y1="0" x2="240" y2="180" stroke="#16283f" stroke-width="1" opacity="0.45"/><line x1="256" y1="0" x2="256" y2="180" stroke="#16283f" stroke-width="1" opacity="0.45"/><line x1="272" y1="0" x2="272" y2="180" stroke="#16283f" stroke-width="1" opacity="0.45"/><line x1="288" y1="0" x2="288" y2="180" stroke="#16283f" stroke-width="1" opacity="0.45"/><line x1="304" y1="0" x2="304" y2="180" stroke="#16283f" stroke-width="1" opacity="0.45"/><line x1="0" y1="12" x2="320" y2="12" stroke="#16283f" stroke-width="1" opacity="0.45"/><line x1="0" y1="28" x2="320" y2="28" stroke="#16283f" stroke-width="1" opacity="0.45"/><line x1="0" y1="44" x2="320" y2="44" stroke="#16283f" stroke-width="1" opacity="0.45"/><line x1="0" y1="60" x2="320" y2="60" stroke="#16283f" stroke-width="1" opacity="0.45"/><line x1="0" y1="76" x2="320" y2="76" stroke="#16283f" stroke-width="1" opacity="0.45"/><line x1="0" y1="92" x2="320" y2="92" stroke="#16283f" stroke-width="1" opacity="0.45"/><line x1="0" y1="108" x2="320" y2="108" stroke="#16283f" stroke-width="1" opacity="0.45"/><line x1="0" y1="124" x2="320" y2="124" stroke="#16283f" stroke-width="1" opacity="0.45"/><line x1="0" y1="140" x2="320" y2="140" stroke="#16283f" stroke-width="1" opacity="0.45"/><line x1="0" y1="156" x2="320" y2="156" stroke="#16283f" stroke-width="1" opacity="0.45"/><line x1="0" y1="172" x2="320" y2="172" stroke="#16283f" stroke-width="1" opacity="0.45"/>
<line x1="10" y1="10" x2="17" y2="10" stroke="#4a8ae5" stroke-width="1" opacity="0.9"/><line x1="10" y1="10" x2="10" y2="17" stroke="#4a8ae5" stroke-width="1" opacity="0.9"/><line x1="303" y1="10" x2="310" y2="10" stroke="#4a8ae5" stroke-width="1" opacity="0.9"/><line x1="310" y1="10" x2="310" y2="17" stroke="#4a8ae5" stroke-width="1" opacity="0.9"/><line x1="10" y1="170" x2="17" y2="170" stroke="#4a8ae5" stroke-width="1" opacity="0.9"/><line x1="10" y1="163" x2="10" y2="170" stroke="#4a8ae5" stroke-width="1" opacity="0.9"/><line x1="303" y1="170" x2="310" y2="170" stroke="#4a8ae5" stroke-width="1" opacity="0.9"/><line x1="310" y1="163" x2="310" y2="170" stroke="#4a8ae5" stroke-width="1" opacity="0.9"/>
<rect x="46" y="46" width="8" height="76" rx="2" fill="#0c1728" stroke="#4a8ae5" stroke-width="1" opacity="0.9"/>
<circle cx="50" cy="54" r="2" fill="none" stroke="#4a8ae5" stroke-width="1" opacity="0.7"/>
<circle cx="50" cy="112" r="2" fill="none" stroke="#4a8ae5" stroke-width="1" opacity="0.7"/>
<rect x="58" y="52" width="220" height="62" rx="5" fill="#0c1728" stroke="#4a8ae5" stroke-width="1.4"/>
<line x1="72" y1="66" x2="222" y2="66" stroke="#4a8ae5" stroke-width="1" opacity="0.35"/>
<line x1="72" y1="76" x2="222" y2="76" stroke="#4a8ae5" stroke-width="1" opacity="0.35"/>
<line x1="72" y1="86" x2="222" y2="86" stroke="#4a8ae5" stroke-width="1" opacity="0.35"/>
<line x1="72" y1="96" x2="222" y2="96" stroke="#4a8ae5" stroke-width="1" opacity="0.35"/>
<rect x="80" y="67" width="44" height="32" fill="none" stroke="#9cc4ff" stroke-width="1" stroke-dasharray="3 2" opacity="0.7"/>
<rect x="90" y="73" width="24" height="20" rx="1" fill="#0e2438" stroke="#9cc4ff" stroke-width="1.2"/><line x1="96" y1="75" x2="96" y2="91" stroke="#9cc4ff" stroke-width="1" opacity="0.16"/><line x1="92" y1="78" x2="112" y2="78" stroke="#9cc4ff" stroke-width="1" opacity="0.16"/><line x1="102" y1="75" x2="102" y2="91" stroke="#9cc4ff" stroke-width="1" opacity="0.16"/><line x1="92" y1="83" x2="112" y2="83" stroke="#9cc4ff" stroke-width="1" opacity="0.16"/><line x1="108" y1="75" x2="108" y2="91" stroke="#9cc4ff" stroke-width="1" opacity="0.16"/><line x1="92" y1="88" x2="112" y2="88" stroke="#9cc4ff" stroke-width="1" opacity="0.16"/><text x="102" y="84.98" font-family="ui-monospace, Menlo, monospace" font-size="5.5" fill="#9cc4ff" text-anchor="middle" font-weight="600">GA102</text>
<rect x="130" y="71" width="11" height="7" fill="#0d1a2b" stroke="#4a8ae5" stroke-width="1" opacity="0.8"/>
<rect x="130" y="80" width="11" height="7" fill="#0d1a2b" stroke="#4a8ae5" stroke-width="1" opacity="0.8"/>
<rect x="130" y="89" width="11" height="7" fill="#0d1a2b" stroke="#4a8ae5" stroke-width="1" opacity="0.8"/>
<rect x="88" y="103" width="11" height="7" fill="#0d1a2b" stroke="#4a8ae5" stroke-width="1" opacity="0.8"/>
<rect x="102" y="103" width="11" height="7" fill="#0d1a2b" stroke="#4a8ae5" stroke-width="1" opacity="0.8"/>
<rect x="250" y="64" width="16" height="22" rx="2" fill="#0b1524" stroke="#4a8ae5" stroke-width="1" opacity="0.85"/>
<circle cx="256" cy="69" r="1" fill="#4a8ae5" opacity="0.55"/>
<circle cx="262" cy="69" r="1" fill="#4a8ae5" opacity="0.55"/>
<circle cx="256" cy="73.5" r="1" fill="#4a8ae5" opacity="0.55"/>
<circle cx="262" cy="73.5" r="1" fill="#4a8ae5" opacity="0.55"/>
<circle cx="256" cy="78" r="1" fill="#4a8ae5" opacity="0.55"/>
<circle cx="262" cy="78" r="1" fill="#4a8ae5" opacity="0.55"/>
<circle cx="256" cy="82.5" r="1" fill="#4a8ae5" opacity="0.55"/>
<circle cx="262" cy="82.5" r="1" fill="#4a8ae5" opacity="0.55"/>
<rect x="80" y="114" width="100" height="8" fill="#0b1524" stroke="#4a8ae5" stroke-width="1" opacity="0.85"/>
<line x1="83" y1="115.5" x2="83" y2="120.5" stroke="#9cc4ff" stroke-width="1" opacity="0.5"/>
<line x1="87" y1="115.5" x2="87" y2="120.5" stroke="#9cc4ff" stroke-width="1" opacity="0.5"/>
<line x1="91" y1="115.5" x2="91" y2="120.5" stroke="#9cc4ff" stroke-width="1" opacity="0.5"/>
<line x1="95" y1="115.5" x2="95" y2="120.5" stroke="#9cc4ff" stroke-width="1" opacity="0.5"/>
<line x1="99" y1="115.5" x2="99" y2="120.5" stroke="#9cc4ff" stroke-width="1" opacity="0.5"/>
<line x1="103" y1="115.5" x2="103" y2="120.5" stroke="#9cc4ff" stroke-width="1" opacity="0.5"/>
<line x1="107" y1="115.5" x2="107" y2="120.5" stroke="#9cc4ff" stroke-width="1" opacity="0.5"/>
<line x1="111" y1="115.5" x2="111" y2="120.5" stroke="#9cc4ff" stroke-width="1" opacity="0.5"/>
<line x1="115" y1="115.5" x2="115" y2="120.5" stroke="#9cc4ff" stroke-width="1" opacity="0.5"/>
<line x1="119" y1="115.5" x2="119" y2="120.5" stroke="#9cc4ff" stroke-width="1" opacity="0.5"/>
<line x1="123" y1="115.5" x2="123" y2="120.5" stroke="#9cc4ff" stroke-width="1" opacity="0.5"/>
<line x1="127" y1="115.5" x2="127" y2="120.5" stroke="#9cc4ff" stroke-width="1" opacity="0.5"/>
<line x1="131" y1="115.5" x2="131" y2="120.5" stroke="#9cc4ff" stroke-width="1" opacity="0.5"/>
<line x1="135" y1="115.5" x2="135" y2="120.5" stroke="#9cc4ff" stroke-width="1" opacity="0.5"/>
<line x1="139" y1="115.5" x2="139" y2="120.5" stroke="#9cc4ff" stroke-width="1" opacity="0.5"/>
<line x1="143" y1="115.5" x2="143" y2="120.5" stroke="#9cc4ff" stroke-width="1" opacity="0.5"/>
<line x1="147" y1="115.5" x2="147" y2="120.5" stroke="#9cc4ff" stroke-width="1" opacity="0.5"/>
<line x1="151" y1="115.5" x2="151" y2="120.5" stroke="#9cc4ff" stroke-width="1" opacity="0.5"/>
<line x1="155" y1="115.5" x2="155" y2="120.5" stroke="#9cc4ff" stroke-width="1" opacity="0.5"/>
<line x1="159" y1="115.5" x2="159" y2="120.5" stroke="#9cc4ff" stroke-width="1" opacity="0.5"/>
<line x1="163" y1="115.5" x2="163" y2="120.5" stroke="#9cc4ff" stroke-width="1" opacity="0.5"/>
<line x1="167" y1="115.5" x2="167" y2="120.5" stroke="#9cc4ff" stroke-width="1" opacity="0.5"/>
<line x1="171" y1="115.5" x2="171" y2="120.5" stroke="#9cc4ff" stroke-width="1" opacity="0.5"/>
<line x1="175" y1="115.5" x2="175" y2="120.5" stroke="#9cc4ff" stroke-width="1" opacity="0.5"/>
<line x1="96" y1="114" x2="96" y2="122" stroke="#4a8ae5" stroke-width="1.5" opacity="0.9"/>
<text x="168" y="63" font-family="ui-monospace, Menlo, monospace" font-size="6.5" fill="#4a8ae5" text-anchor="middle" letter-spacing="0.12em">24GB GDDR6</text>
<line x1="58" y1="44" x2="278" y2="44" stroke="#4a8ae5" stroke-width="1" stroke-dasharray="3 3" opacity="0.55"/><line x1="58" y1="41" x2="58" y2="47" stroke="#4a8ae5" stroke-width="1" opacity="0.55"/><line x1="278" y1="41" x2="278" y2="47" stroke="#4a8ae5" stroke-width="1" opacity="0.55"/>
<text x="306" y="166" font-family="ui-monospace, Menlo, monospace" font-size="7" fill="#4a8ae5" text-anchor="end" letter-spacing="0.22em">PCIE · 1-SLOT</text>
</svg>
