<svg width="320" height="180" viewBox="0 0 320 180" fill="none" xmlns="http://www.w3.org/2000/svg" role="img">
<defs>
<linearGradient id="rtx-4090-bg" x1="0" y1="0" x2="1" y2="1">
<stop offset="0%" stop-color="#0c1626"/>
<stop offset="55%" stop-color="#0a1220"/>
<stop offset="100%" stop-color="#0b0f1e"/>
</linearGradient>
</defs>
<rect width="320" height="180" fill="url(#rtx-4090-bg)"/>
<line x1="16" y1="0" x2="16" y2="180" stroke="#16283f" stroke-width="1" opacity="0.45"/><line x1="32" y1="0" x2="32" y2="180" stroke="#16283f" stroke-width="1" opacity="0.45"/><line x1="48" y1="0" x2="48" y2="180" stroke="#16283f" stroke-width="1" opacity="0.45"/><line x1="64" y1="0" x2="64" y2="180" stroke="#16283f" stroke-width="1" opacity="0.45"/><line x1="80" y1="0" x2="80" y2="180" stroke="#16283f" stroke-width="1" opacity="0.45"/><line x1="96" y1="0" x2="96" y2="180" stroke="#16283f" stroke-width="1" opacity="0.45"/><line x1="112" y1="0" x2="112" y2="180" stroke="#16283f" stroke-width="1" opacity="0.45"/><line x1="128" y1="0" x2="128" y2="180" stroke="#16283f" stroke-width="1" opacity="0.45"/><line x1="144" y1="0" x2="144" y2="180" stroke="#16283f" stroke-width="1" opacity="0.45"/><line x1="160" y1="0" x2="160" y2="180" stroke="#16283f" stroke-width="1" opacity="0.45"/><line x1="176" y1="0" x2="176" y2="180" stroke="#16283f" stroke-width="1" opacity="0.45"/><line x1="192" y1="0" x2="192" y2="180" stroke="#16283f" stroke-width="1" opacity="0.45"/><line x1="208" y1="0" x2="208" y2="180" stroke="#16283f" stroke-width="1" opacity="0.45"/><line x1="224" y1="0" x2="224" y2="180" stroke="#16283f" stroke-width="1" opacity="0.45"/><line x1="240" y1="0" x2="240" y2="180" stroke="#16283f" stroke-width="1" opacity="0.45"/><line x1="256" y1="0" x2="256" y2="180" stroke="#16283f" stroke-width="1" opacity="0.45"/><line x1="272" y1="0" x2="272" y2="180" stroke="#16283f" stroke-width="1" opacity="0.45"/><line x1="288" y1="0" x2="288" y2="180" stroke="#16283f" stroke-width="1" opacity="0.45"/><line x1="304" y1="0" x2="304" y2="180" stroke="#16283f" stroke-width="1" opacity="0.45"/><line x1="0" y1="12" x2="320" y2="12" stroke="#16283f" stroke-width="1" opacity="0.45"/><line x1="0" y1="28" x2="320" y2="28" stroke="#16283f" stroke-width="1" opacity="0.45"/><line x1="0" y1="44" x2="320" y2="44" stroke="#16283f" stroke-width="1" opacity="0.45"/><line x1="0" y1="60" x2="320" y2="60" stroke="#16283f" stroke-width="1" opacity="0.45"/><line x1="0" y1="76" x2="320" y2="76" stroke="#16283f" stroke-width="1" opacity="0.45"/><line x1="0" y1="92" x2="320" y2="92" stroke="#16283f" stroke-width="1" opacity="0.45"/><line x1="0" y1="108" x2="320" y2="108" stroke="#16283f" stroke-width="1" opacity="0.45"/><line x1="0" y1="124" x2="320" y2="124" stroke="#16283f" stroke-width="1" opacity="0.45"/><line x1="0" y1="140" x2="320" y2="140" stroke="#16283f" stroke-width="1" opacity="0.45"/><line x1="0" y1="156" x2="320" y2="156" stroke="#16283f" stroke-width="1" opacity="0.45"/><line x1="0" y1="172" x2="320" y2="172" stroke="#16283f" stroke-width="1" opacity="0.45"/>
<line x1="10" y1="10" x2="17" y2="10" stroke="#6fae4e" stroke-width="1" opacity="0.9"/><line x1="10" y1="10" x2="10" y2="17" stroke="#6fae4e" stroke-width="1" opacity="0.9"/><line x1="303" y1="10" x2="310" y2="10" stroke="#6fae4e" stroke-width="1" opacity="0.9"/><line x1="310" y1="10" x2="310" y2="17" stroke="#6fae4e" stroke-width="1" opacity="0.9"/><line x1="10" y1="170" x2="17" y2="170" stroke="#6fae4e" stroke-width="1" opacity="0.9"/><line x1="10" y1="163" x2="10" y2="170" stroke="#6fae4e" stroke-width="1" opacity="0.9"/><line x1="303" y1="170" x2="310" y2="170" stroke="#6fae4e" stroke-width="1" opacity="0.9"/><line x1="310" y1="163" x2="310" y2="170" stroke="#6fae4e" stroke-width="1" opacity="0.9"/>
<rect x="58" y="40" width="222" height="100" rx="10" fill="#0c1728" stroke="#6fae4e" stroke-width="1.4"/>
<circle cx="116" cy="90" r="36" fill="#0b1524" stroke="#6fae4e" stroke-width="1.3"/>
<circle cx="116" cy="90" r="7" fill="#0e2438" stroke="#b6e89a" stroke-width="1"/>
<path d="M 125.0 90.0 Q 135.1 101.6 137.1 114.0" stroke="#6fae4e" stroke-width="1" fill="none" opacity="0.7"/>
<path d="M 121.6 97.0 Q 118.9 112.1 110.4 121.5" stroke="#6fae4e" stroke-width="1" fill="none" opacity="0.7"/>
<path d="M 114.0 98.8 Q 100.5 106.0 87.9 105.2" stroke="#6fae4e" stroke-width="1" fill="none" opacity="0.7"/>
<path d="M 107.9 93.9 Q 93.8 87.9 86.5 77.5" stroke="#6fae4e" stroke-width="1" fill="none" opacity="0.7"/>
<path d="M 107.9 86.1 Q 103.8 71.3 107.4 59.2" stroke="#6fae4e" stroke-width="1" fill="none" opacity="0.7"/>
<path d="M 114.0 81.2 Q 123.0 68.8 134.7 64.1" stroke="#6fae4e" stroke-width="1" fill="none" opacity="0.7"/>
<path d="M 121.6 83.0 Q 136.9 82.3 148.0 88.5" stroke="#6fae4e" stroke-width="1" fill="none" opacity="0.7"/>
<circle cx="222" cy="90" r="36" fill="#0b1524" stroke="#6fae4e" stroke-width="1.3"/>
<circle cx="222" cy="90" r="7" fill="#0e2438" stroke="#b6e89a" stroke-width="1"/>
<path d="M 231.0 90.0 Q 241.1 101.6 243.1 114.0" stroke="#6fae4e" stroke-width="1" fill="none" opacity="0.7"/>
<path d="M 227.6 97.0 Q 224.9 112.1 216.4 121.5" stroke="#6fae4e" stroke-width="1" fill="none" opacity="0.7"/>
<path d="M 220.0 98.8 Q 206.5 106.0 193.9 105.2" stroke="#6fae4e" stroke-width="1" fill="none" opacity="0.7"/>
<path d="M 213.9 93.9 Q 199.8 87.9 192.5 77.5" stroke="#6fae4e" stroke-width="1" fill="none" opacity="0.7"/>
<path d="M 213.9 86.1 Q 209.8 71.3 213.4 59.2" stroke="#6fae4e" stroke-width="1" fill="none" opacity="0.7"/>
<path d="M 220.0 81.2 Q 229.0 68.8 240.7 64.1" stroke="#6fae4e" stroke-width="1" fill="none" opacity="0.7"/>
<path d="M 227.6 83.0 Q 242.9 82.3 254.0 88.5" stroke="#6fae4e" stroke-width="1" fill="none" opacity="0.7"/>
<rect x="155" y="76" width="28" height="28" rx="1" fill="#0e2438" stroke="#b6e89a" stroke-width="1.2"/><line x1="162" y1="78" x2="162" y2="102" stroke="#b6e89a" stroke-width="1" opacity="0.16"/><line x1="157" y1="83" x2="181" y2="83" stroke="#b6e89a" stroke-width="1" opacity="0.16"/><line x1="169" y1="78" x2="169" y2="102" stroke="#b6e89a" stroke-width="1" opacity="0.16"/><line x1="157" y1="90" x2="181" y2="90" stroke="#b6e89a" stroke-width="1" opacity="0.16"/><line x1="176" y1="78" x2="176" y2="102" stroke="#b6e89a" stroke-width="1" opacity="0.16"/><line x1="157" y1="97" x2="181" y2="97" stroke="#b6e89a" stroke-width="1" opacity="0.16"/>
<text x="169" y="92.5" font-family="ui-monospace, Menlo, monospace" font-size="6.5" fill="#b6e89a" text-anchor="middle" font-weight="600">AD102</text>
<line x1="169" y1="76" x2="169" y2="48" stroke="#b6e89a" stroke-width="1" stroke-dasharray="2 3" opacity="0.5"/>
<text x="169" y="154" font-family="ui-monospace, Menlo, monospace" font-size="6.5" fill="#6fae4e" text-anchor="middle" letter-spacing="0.2em">GEFORCE RTX 4090</text>
<line x1="58" y1="32" x2="280" y2="32" stroke="#6fae4e" stroke-width="1" stroke-dasharray="3 3" opacity="0.55"/><line x1="58" y1="29" x2="58" y2="35" stroke="#6fae4e" stroke-width="1" opacity="0.55"/><line x1="280" y1="29" x2="280" y2="35" stroke="#6fae4e" stroke-width="1" opacity="0.55"/>
<text x="306" y="166" font-family="ui-monospace, Menlo, monospace" font-size="7" fill="#6fae4e" text-anchor="end" letter-spacing="0.22em">AIC · 3-SLOT</text>
</svg>
